{"title":"Dhoom Machale (2015) Hindi Dubbed WebRip","uid":12221692,"size":381077582,"categoryP":"video","categoryS":"movies","magnet":"?xt=urn:btih:009e4342404803b7cffaa87f3ca2fc7e23b9ec77&amp;dn=Dhoom+Machale+%282015%29+Hindi+Dubbed+WebRip&amp;tr=udp%3A%2F%2Ftracker.openbittorrent.com%3A80&amp;tr=udp%3A%2F%2Fopen.demonii.com%3A1337&amp;tr=udp%3A%2F%2Ftracker.coppersurfer.tk%3A6969&amp;tr=udp%3A%2F%2Fexodus.desync.com%3A6969","seeders":1,"leechers":0,"uploader":"shuvoboss","files":1,"time":1439372830,"description":" &lt;a href=&quot;http://i.imgur.com/onzUgAS.png&quot; rel=&quot;nofollow&quot; target=&quot;_NEW&quot;&gt;http://i.imgur.com/onzUgAS.png&lt;/a&gt;\n\nAKA:  Irumbu Kuthirai (2014)\nAction, Drama  |  29 August 2014 (India)\nDirector: Yuvaraj Bose\nStars: Atharvaa Murali, Priya Anand, Johnny Nguyen\n\nStoryline\nLife changes drastically for Prithvi(Atharva) a meek pizza delivery boy after he meets Samyuktha (Priya Anand). Soon, they become good friends and our dull boy transforms into a &quot;man on mission&quot;. Prithvi has a strange equation with bikes thanks to an accident. In the meantime, Samyuktha gets kidnapped and Prithvi has to find her.\n\nScreenshots &lt;a href=&quot;\nhttp://i.imgur.com/ac1yqw1.jpg&quot; rel=&quot;nofollow&quot; target=&quot;_NEW&quot;&gt;\nhttp://i.imgur.com/ac1yqw1.jpg&lt;/a&gt;\n\nComplete name               : Dhoom Machale (2015) Hindi Dubbed WebRip.mp4\nFormat                      : MPEG-4\nFormat profile              : Base Media / Version 2\nCodec ID                    : mp42\nFile size                   : 363 MiB\nDuration                    : 1h 44mn\nOverall bit rate mode       : Variable\nOverall bit rate            : 488 Kbps\nEncoded date                : UTC 2015-02-14 01:32:18\nTagged date                 : UTC 2015-02-14 01:32:18\n\nVideo\nFormat                      : AVC\nFormat/Info                 : Advanced Video Codec\nFormat profile              : &lt;a class=&quot;__cf_email__&quot; href=&quot;/cdn-cgi/l/email-protection&quot; data-cfemail=&quot;0c4e6d7f69606562694c403e223d&quot;&gt;[email&amp;#160;protected]&lt;/a&gt;&lt;script data-cfhash='f9e31' type=&quot;text/javascript&quot;&gt;\n/* &lt;![CDATA[ */!function(){try{var t=&quot;currentScript&quot;in document?document.currentScript:function(){for(var t=document.getElementsByTagName(&quot;script&quot;),e=t.length;e--;)if(t[e].getAttribute(&quot;data-cfhash&quot;))return t[e]}();if(t&amp;&amp;t.previousSibling){var e,r,n,i,c=t.previousSibling,a=c.getAttribute(&quot;data-cfemail&quot;);if(a){for(e=&quot;&quot;,r=parseInt(a.substr(0,2),16),n=2;a.length-n;n+=2)i=parseInt(a.substr(n,2),16)^r,e+=String.fromCharCode(i);e=document.createTextNode(e),c.parentNode.replaceChild(e,c)}t.parentNode.removeChild(t);}}catch(u){}}()/* ]]&gt; */&lt;/script&gt;\nFormat settings, CABAC      : No\nFormat settings, ReFrames   : 1 frame\nFormat settings, GOP        : M=1, N=60\nCodec ID                    : avc1\nCodec ID/Info               : Advanced Video Coding\nDuration                    : 1h 44mn\nBit rate                    : 389 Kbps\nMaximum bit rate            : 2 108 Kbps\nWidth                       : 640 pixels\nHeight                      : 272 pixels\nDisplay aspect ratio        : 2.35:1\nFrame rate mode             : Constant\nFrame rate                  : 25.000 fps\nColor space                 : YUV\nChroma subsampling          : 4:2:0\nBit depth                   : 8 bits\nScan type                   : Progressive\nBits/(Pixel*Frame)          : 0.089\nStream size                 : 290 MiB (80%)\nTagged date                 : UTC 2015-02-14 01:33:21\n\nAudio\nFormat                      : AAC\nFormat/Info                 : Advanced Audio Codec\nFormat profile              : LC\nCodec ID                    : 40\nDuration                    : 1h 44mn\nBit rate mode               : Variable\nBit rate                    : 96.0 Kbps\nMaximum bit rate            : 104 Kbps\nChannel(s)                  : 2 channels\nChannel positions           : Front: L R\nSampling rate               : 44.1 KHz\nCompression mode            : Lossy\nStream size                 : 71.5 MiB (20%)\nTitle                       : IsoMedia File Produced by Google, 5-11-2011","torrent":{"xt":"urn:btih:009e4342404803b7cffaa87f3ca2fc7e23b9ec77","amp;dn":"Dhoom+Machale+%282015%29+Hindi+Dubbed+WebRip","amp;tr":["udp%3A%2F%2Ftracker.openbittorrent.com%3A80","udp%3A%2F%2Fopen.demonii.com%3A1337","udp%3A%2F%2Ftracker.coppersurfer.tk%3A6969","udp%3A%2F%2Fexodus.desync.com%3A6969"],"infoHash":"009e4342404803b7cffaa87f3ca2fc7e23b9ec77","infoHashBuffer":{"type":"Buffer","data":[0,158,67,66,64,72,3,183,207,250,168,127,60,162,252,126,35,185,236,119]},"announce":[],"urlList":[]}}